<svg width="21" height="21" viewBox="0 0 21 21" fill="none" xmlns="http://www.w3.org/2000/svg">
<path d="M1 7H20L17.9 20H3.1L1 7Z" stroke="black" stroke-width="2" stroke-linecap="round" stroke-linejoin="round"/>
<path d="M16 7C16 3.6863 13.5375 1 10.5 1C7.46245 1 5 3.6863 5 7" stroke="black" stroke-width="2" stroke-linecap="round" stroke-linejoin="round"/>
<path d="M7.75 11.5C7.75 11.9142 7.41421 12.25 7 12.25C6.58579 12.25 6.25 11.9142 6.25 11.5C6.25 11.0858 6.58579 10.75 7 10.75C7.41421 10.75 7.75 11.0858 7.75 11.5Z" fill="white" stroke="black" stroke-width="0.5"/>
<path d="M7.5 15C7.5 15 8.5 16.5 10.5 16.5C12.5 16.5 13.5 15 13.5 15" stroke="black" stroke-width="2" stroke-linecap="round" stroke-linejoin="round"/>
<path d="M14.75 11.5C14.75 11.9142 14.4142 12.25 14 12.25C13.5858 12.25 13.25 11.9142 13.25 11.5C13.25 11.0858 13.5858 10.75 14 10.75C14.4142 10.75 14.75 11.0858 14.75 11.5Z" fill="white" stroke="black" stroke-width="0.5"/>
</svg>
